<?xml version="1.0" encoding="UTF-8" standalone="no"?>
<!-- Created with Inkscape (http://www.inkscape.org/) -->

<svg
   width="100vw"
   height="100vh"
   viewBox="0 0 1920 1080"
   version="1.1"
   id="svg1"
   style="display: block; margin: 0; padding: 0; overflow: hidden;"
   xml:space="preserve"
   inkscape:version="1.3.2 (091e20e, 2023-11-25, custom)"
   sodipodi:docname="dibujo_grande.svg"
   xmlns:inkscape="http://www.inkscape.org/namespaces/inkscape"
   xmlns:sodipodi="http://sodipodi.sourceforge.net/DTD/sodipodi-0.dtd"
   xmlns="http://www.w3.org/2000/svg"
   xmlns:svg="http://www.w3.org/2000/svg"><sodipodi:namedview
     id="namedview1"
     pagecolor="#505050"
     bordercolor="#eeeeee"
     borderopacity="1"
     inkscape:showpageshadow="0"
     inkscape:pageopacity="0"
     inkscape:pagecheckerboard="0"
     inkscape:deskcolor="#505050"
     inkscape:document-units="px"
     inkscape:zoom="0.32864583"
     inkscape:cx="960"
     inkscape:cy="540.09509"
     inkscape:window-width="1366"
     inkscape:window-height="697"
     inkscape:window-x="-8"
     inkscape:window-y="-8"
     inkscape:window-maximized="1"
     inkscape:current-layer="layer1" /><defs
     id="defs1" /><g
     inkscape:label="Capa 1"
     inkscape:groupmode="layer"
     id="layer1"><path
       style="fill:#3d4e52;fill-opacity:1;stroke-width:1.99814"
       d="m 12.042023,1071.9661 -3.7464002,-4.2628 v -7.3769 -7.3769 l 4.0996102,-4.3459 c 2.25479,-2.3902 4.783612,-4.3458 5.619602,-4.3458 h 1.519989 l 0.151917,-122.0234 0.151915,-122.02335 31.027823,-29.83977 c 17.065285,-16.41188 45.66188,-44.20737 63.547981,-61.76777 l 32.5202,-31.92802 -0.47935,-170.55614 -0.47935,-170.55616 -5.23071,-0.68315 -5.23069,-0.68313 0.54768,-15.30245 0.54771,-15.30246 13.06396,-0.64112 13.06395,-0.64114 35.17096,-40.48514 35.17084,-40.48516 V 155.5903 89.841152 l -2.96301,-1.293746 c -1.62965,-0.711551 -5.0014,-1.293746 -7.4928,-1.293746 h -4.5298 V 70.202362 53.151064 h 14.98561 14.98561 v 16.90973 16.90973 l -5.15131,0.674421 -5.1513,0.674422 -0.49369,68.254563 -0.49368,68.25455 -36.50202,41.49267 -36.50201,41.49268 v 13.34184 13.34181 h -5.61961 -5.6196 v 171.54285 171.54284 l -20.23752,19.75141 c -11.13061,10.86328 -31.99439,31.26103 -46.363933,45.32834 -14.369527,14.06732 -29.075721,28.35173 -32.680396,31.7431 -3.604694,3.39137 -11.822348,11.49177 -18.261474,18.00087 L 23.281224,804.2416 v 120.00808 120.00812 h 1.617771 c 0.88977,0 3.840062,2.5286 6.556202,5.6192 l 4.938429,5.6191 v 5.1348 5.1347 l -4.597863,5.2317 -4.597844,5.2316 H 21.493162 15.788424 Z M 1533.0809,1032.535 1494.7147,988.84104 h -111.0629 -111.0633 l -1.0509,3.11599 -1.0509,3.11597 -3.7074,1.33896 -3.7076,1.33895 -3.6123,-3.71957 -3.6121,-3.71957 v -3.50619 c 0,-1.92842 1.0114,-4.65718 2.2479,-6.06391 l 2.2478,-2.5577 h 4.0791 4.0788 l 2.332,3.19713 2.3319,3.19711 h 111.7108 111.7104 l 40.2414,45.82539 40.2412,45.8253 h -2.8108 -2.8106 z m 282.0127,41.7348 15.0814,-1.238 20.8994,-23.8914 20.8998,-23.8914 0.2419,-36.03744 0.242,-36.03746 -4.8468,-5.51519 -4.8471,-5.51518 v -5.34239 -5.34238 l 4.0996,-4.34583 4.0995,-4.34587 h 4.33 4.3296 l 3.7464,4.26282 3.7464,4.26283 v 6.23953 6.23954 l -4.6829,4.19142 -4.683,4.19142 v 36.48459 36.48459 l -22.5768,25.5525 -22.5766,25.5524 -16.2923,-0.3606 -16.2921,-0.3606 z m 81.3882,-1.3398 v -3.2988 l 4.683,-4.9384 4.6829,-4.9383 V 957.59809 855.44163 l -49.2482,-48.27216 c -27.0865,-26.5497 -51.5661,-50.347 -54.3997,-52.88287 l -5.1514,-4.61069 0.1573,-132.45693 c 0.087,-72.85131 0.122,-138.86646 0.078,-146.70034 l -0.082,-14.24339 -3.6505,-1.31836 -3.6506,-1.31837 -1.428,-4.68666 c -0.7854,-2.57766 -1.4607,-7.27009 -1.5009,-10.42765 l -0.074,-5.74102 -31.3761,-36.34095 -31.376,-36.34094 v -62.62912 -62.62911 l -2.8098,-2.65338 -2.81,-2.65337 v -3.67148 -3.67151 l 3.4257,-3.52746 c 1.8841,-1.94011 4.2823,-3.52748 5.3295,-3.52748 2.7929,0 8.1038,7.27219 8.1038,11.09677 v 3.30116 l -2.8098,2.65337 -2.8099,2.65338 v 63.17275 63.17278 l 30.4958,34.6517 30.4959,34.65168 5.9075,-1.34434 5.9074,-1.34434 4.8071,5.46981 4.8071,5.4698 v 3.95783 3.95778 l -3.8193,4.66473 c -2.1007,2.56561 -4.6295,4.66472 -5.6198,4.66472 h -1.8 l 0.021,145.46889 0.018,145.46889 48.9817,47.95677 c 26.9397,26.37623 51.7977,50.94744 55.2397,54.60269 l 6.2582,6.64591 v 102.81507 102.81511 l 4.6829,4.1914 4.6831,4.1914 v 3.0424 3.0424 h -12.1759 -12.1756 z M 85.565135,1032.8833 58.87203,1002.4363 V 958.33897 914.2416 h -1.519989 c -0.835991,0 -3.364811,-1.95563 -5.619599,-4.34583 l -4.099613,-4.34587 v -8.19748 -8.19749 l 4.617101,-3.44226 4.617083,-3.44225 h 3.935463 c 2.164501,0 5.450302,0.92249 7.301792,2.04997 l 3.366346,2.04996 2.277681,6.25679 2.277699,6.25683 -2.936842,6.46206 -2.93684,6.46207 -3.766932,1.36038 -3.766948,1.3604 v 42.19891 42.19892 l 26.565408,30.12549 26.56541,30.1254 H 263.2679 410.78655 l 45.54868,-51.6867 45.54868,-51.68675 127.37762,-1.06572 127.37761,-1.0657 0.93659,-8.52565 0.93661,-8.52564 14.60098,-0.62423 14.60099,-0.6242 -0.55198,15.54408 -0.55198,15.54411 -12.28376,0.62091 -12.28375,0.62087 -3.46047,-4.35084 -3.46049,-4.35088 H 630.2855 505.44909 l -45.8028,52.18144 -45.80281,52.1815 -150.79262,-0.017 -150.79262,-0.017 z m 1381.953765,7.1116 -5.2495,-6.3942 H 1226.0611 989.85263 v 2.0564 c 0,1.131 -1.68587,3.0831 -3.7464,4.3378 l -3.7464,2.2814 -3.85579,-2.348 -3.8558,-2.348 0.5777,-6.7855 0.57769,-6.7855 4.84335,-0.6406 4.84335,-0.6406 2.41043,3.3049 2.41062,3.3049 h 236.04762 236.0475 l 4.3401,-5.3286 4.3398,-5.3285 h 5.4189 5.4185 l 3.1001,3.8978 3.1003,3.8978 v 5.6936 5.6935 l -3.7465,4.2628 -3.7463,4.2629 h -3.9316 -3.9314 z m 151.7292,-45.82534 -38.3663,-43.69394 h -83.6274 -83.6274 l -3.0488,5.29469 -3.049,5.2947 -4.673,1.33449 -4.673,1.33452 -4.6693,-3.48121 -4.6694,-3.48121 0.028,-6.87797 c 0.035,-8.53144 1.5745,-11.38945 7.5024,-13.93249 l 4.6447,-1.99268 4.3912,1.86504 4.3915,1.865 0.9783,4.25716 0.9785,4.25713 h 85.4977 85.4975 l 38.3664,43.69395 38.3663,43.69396 h 68.8199 68.8204 l 17.7903,-20.7813 17.7905,-20.78125 0.04,-58.73613 0.043,-58.73617 -37.8555,-39.3088 c -20.8204,-21.61984 -51.5877,-53.60531 -68.3717,-71.07877 L 1696.049,732.4083 V 632.79159 533.1749 l -2.9296,-1.27909 -2.9292,-1.2791 0.5878,-6.94173 0.588,-6.94175 4.3177,-0.69647 4.318,-0.69648 2.7066,2.55601 2.7067,2.55602 v 5.13445 5.13443 l -2.8098,1.22687 -2.8098,1.22684 v 98.51595 98.51597 l 68.3717,71.21574 68.3719,71.21576 -0.047,60.76562 -0.047,60.76562 -18.6326,21.84694 -18.6325,21.847 h -70.7827 -70.7825 z m -1105.74091,29.56634 -1.32068,-1.5027 v -15.6304 -15.63035 h 15.9222 15.9222 v 7.45994 7.45991 h 213.54482 213.54491 v 2.1224 2.1223 l -213.05823,0.542 -213.05818,0.5419 -0.96805,6.3942 -0.96805,6.3942 -14.12013,0.6147 -14.12011,0.6146 z M 128.22292,991.1938 105.70203,965.75655 v -71.33482 -71.33481 l 7.96111,-8.09051 c 4.3786,-4.4498 16.81196,-17.36228 27.6297,-28.69444 10.81774,-11.33214 40.74211,-42.42348 66.49861,-69.09184 25.75651,-26.66838 49.57716,-51.74869 52.93477,-55.73403 l 6.10476,-7.24605 -0.48516,-110.31096 -0.48516,-110.31094 -7.96111,-0.65542 -7.96109,-0.65537 V 416.7325 401.16765 l 9.87996,-1.16026 9.87994,-1.16027 5.10567,1.11054 5.10564,1.11056 v 15.58887 15.58887 l -4.21471,0.68109 -4.21469,0.6811 -0.48471,112.11209 -0.48473,112.11209 -11.75422,12.57552 c -13.48433,14.42651 -23.27611,24.68549 -54.71156,57.32208 -12.36312,12.83552 -26.27163,27.28333 -30.90781,32.10629 -4.63616,4.82294 -14.32997,14.84611 -21.5418,22.27374 -7.21182,7.4276 -19.64519,20.56503 -27.6297,29.19426 l -14.5173,15.68952 v 67.73647 67.7365 l 21.71028,24.90994 21.71029,24.90995 79.91083,-0.024 79.91083,-0.024 44.66904,-51.13008 44.66904,-51.13012 94.8844,-0.3377 c 52.18639,-0.18565 96.30974,-0.20718 98.05187,-0.0473 l 3.16751,0.29027 0.5789,-7.94538 0.57889,-7.94536 16.3905,-0.61583 16.3905,-0.61582 v 19.34866 19.34867 l -16.3905,-0.61583 -16.3905,-0.61585 -0.58139,-7.99279 -0.58135,-7.9928 -96.82506,0.0171 -96.82503,0.0171 -45.00873,51.05155 -45.00873,51.05151 -81.85811,0.1271 -81.85811,0.127 z m 1504.13768,-41.78389 -38.3664,-43.69395 h -52.8524 -52.8526 l -7.7891,-15.45274 c -4.2839,-8.49901 -9.8121,-19.04949 -12.285,-23.44553 l -4.4959,-7.9928 h -81.5474 -81.5473 l -4.3695,5.77986 -4.3691,5.77985 -5.0152,0.2498 -5.0151,0.24981 -15.4057,30.73721 -15.4053,30.73719 -58.6385,0.56349 -58.6383,0.56348 -2.7828,3.16649 -2.7831,3.16648 h -3.2378 c -1.7807,0 -4.2495,-1.15095 -5.4858,-2.5577 l -2.2478,-2.55768 v -4.47597 -4.47596 l 2.2478,-2.5577 c 1.2363,-1.40673 3.6346,-2.5577 5.3292,-2.5577 h 3.0815 l 3.3328,4.19034 3.3328,4.19031 56.735,0.0149 56.7353,0.0149 15.3652,-30.21258 15.3655,-30.21258 -2.0882,-3.80447 c -1.1485,-2.09054 -2.0881,-6.06475 -2.0881,-8.82967 v -5.0271 l 3.4256,-3.52746 3.4256,-3.52746 h 5.8046 5.8042 l 3.6836,5.32851 3.6837,5.32854 h 83.385 83.3849 l 11.5816,23.44554 11.5816,23.44553 h 52.7637 52.764 l 38.3663,43.69395 38.3665,43.69396 h 33.2664 33.2664 v -36.15902 -36.15901 l -3.8362,-2.33601 -3.8359,-2.33599 -1.7401,-5.20738 -1.7399,-5.20738 2.1508,-5.3712 2.1508,-5.37119 4.3619,-1.24566 4.3618,-1.24566 4.4959,1.28393 4.4956,1.28391 1.8031,5.88528 1.8031,5.88528 -1.5103,4.64528 -1.5103,4.6453 -3.8519,2.34574 -3.852,2.34575 v 38.29043 38.29041 h -36.0761 -36.0764 z m 147.4333,37.2655 -5.0701,-4.53801 v -5.38439 -5.3844 l 5.6196,-5.97311 5.6196,-5.97311 v -33.79082 -33.79083 l -71.1816,-80.97263 -71.1817,-80.97263 v -31.18787 -31.18786 l -2.8096,-2.65338 -2.81,-2.65337 v -4.99255 -4.99256 l 3.6233,-2.2064 c 1.9928,-1.21352 4.4616,-2.20641 5.4858,-2.20641 2.7809,0 7.7497,6.26069 7.7497,9.76446 v 3.06574 l -3.7463,3.64994 -3.7464,3.64994 v 29.90946 29.90945 l 71.1815,80.97263 71.1818,80.97263 v 35.93778 35.93776 l 4.6828,4.19142 4.6831,4.19143 v 5.83216 5.83217 l -2.3414,3.48783 -2.3417,3.48785 -4.764,1.30283 -4.7642,1.30285 z M 216.22084,918.6331 v -44.63101 l -7.02448,-0.66149 -7.02451,-0.66153 v -17.0513 -17.05129 l 15.53091,-0.62046 15.53089,-0.62047 -0.54528,17.67177 -0.54531,17.67175 -6.0879,0.66789 -6.08791,0.66791 v 42.49319 42.4932 h 38.88355 38.88355 l 44.90282,-51.12575 44.90284,-51.12579 61.74719,-0.56096 61.74716,-0.56099 9.05218,-17.05129 c 4.97871,-9.37823 10.86085,-21.11487 13.07145,-26.08144 l 4.0193,-9.03013 5.76831,-1.22373 5.76831,-1.22372 92.23541,0.66249 92.23542,0.66251 0.95629,-2.83856 c 0.52599,-1.56124 0.95631,-5.19835 0.95631,-8.08247 v -5.24387 l 14.51731,0.62253 14.5173,0.62249 0.54708,16.51845 0.54711,16.51844 h -1.95201 c -3.34376,0 -2.21635,3.63086 6.10271,19.65418 4.43005,8.53277 8.64228,16.95283 9.36047,18.71124 0.71818,1.75842 4.49079,8.95194 8.38356,15.98559 l 7.07769,12.78847 58.02143,0.317 c 31.91184,0.17436 60.76119,-0.17434 64.10954,-0.77476 l 6.08789,-1.09177 v -5.08662 -5.08662 h 14.13106 14.13105 l -0.55035,15.45274 -0.55034,15.45274 -13.45614,0.62337 -13.45614,0.62339 -0.59286,-7.01762 -0.59288,-7.01761 -65.40952,-1.06571 -65.40948,-1.0657 -12.66525,-25.57695 c -6.96586,-14.06731 -15.04246,-29.89306 -17.94794,-35.16829 l -5.28269,-9.59137 -9.71893,-0.63967 -9.71894,-0.63969 -0.58366,-5.75455 -0.58367,-5.75456 -96.81896,-0.55195 -96.81896,-0.55196 -10.77955,20.80037 c -5.92876,11.44021 -11.94469,23.438 -13.36876,26.66176 l -2.58918,5.86138 h -62.08218 -62.08216 l -44.99941,51.1539 -44.99941,51.15389 h -41.70065 -41.70068 z m -66.03763,33.44108 c -0.49546,-3.8099 -0.48014,-10.52385 0.0341,-14.91989 l 0.93488,-7.99279 2.09487,-0.24587 c 1.15217,-0.13516 3.35926,-0.375 4.90465,-0.53284 l 2.8098,-0.28701 0.50664,-43.00556 0.50666,-43.00555 82.38247,-94.13704 82.38241,-94.13702 v -34.8339 -34.83391 l -6.08791,-0.6679 -6.0879,-0.66789 -0.57897,-11.60885 c -0.31843,-6.38487 -0.0915,-13.81818 0.504,-16.51844 l 1.08294,-4.9096 h 14.09212 14.09211 l -0.5471,16.51845 -0.5471,16.51844 -6.0879,0.66789 -6.08789,0.6679 v 36.68858 36.68858 l -52.91792,60.02838 c -29.10485,33.0156 -66.2623,75.33773 -82.57212,94.04916 l -29.6542,34.0208 0.61959,39.7209 0.61962,39.7209 2.8098,2.01807 c 1.54538,1.10993 4.70641,2.03275 7.0245,2.05069 l 4.21469,0.0327 v 14.91988 14.91989 h -14.77299 -14.773 z m 1694.91929,-213.82633 -2.9436,-3.34934 v -5.31642 c 0,-2.92402 0.8726,-7.17163 1.9392,-9.43911 l 1.9392,-4.12271 h 2.7439 2.7437 V 373.12389 30.227492 l -2.8096,-2.653374 -2.81,-2.653374 v -4.806569 -4.806569 l 2.7855,-2.630397 2.7854,-2.630398 4.5826,1.308667 4.5824,1.308666 1.2383,4.439198 1.2383,4.439198 -3.9233,4.751728 -3.9231,4.751728 v 341.176294 341.1763 l 4.6531,3.46922 4.6534,3.4692 1.1729,5.31711 1.1728,5.31709 -3.0594,5.31301 -3.0596,5.313 h -6.3791 -6.3793 z M 76.582296,666.02897 71.984432,660.79732 v -6.49111 -6.49113 l 3.746402,-4.26283 c 2.060519,-2.34455 4.589341,-4.26282 5.6196,-4.26282 h 1.8732 V 324.90612 10.52282 h 1.8732 1.873201 l 0.03671,119.89194 c 0.02022,65.94056 0.0038,206.80569 -0.03578,313.03359 l -0.0725,193.14165 6.591979,5.72101 6.591956,5.72102 v 5.04574 c 0,2.77514 -0.523608,6.59836 -1.163596,8.49601 l -1.163592,3.45026 -5.299579,3.1183 c -2.914775,1.71505 -6.644168,3.11827 -8.287545,3.11827 H 81.18011 Z m 1637.177304,-44.75964 -4.598,-5.23167 v -3.43411 c 0,-1.88877 0.8983,-5.34345 1.9958,-7.67707 l 1.9956,-4.24292 4.0924,-1.76905 4.0922,-1.76905 5.7416,2.68161 5.7416,2.68162 3.1563,-2.62587 3.1559,-2.62587 V 548.916 500.57503 l -3.8282,-5.89146 -3.828,-5.89146 1.2249,-3.63198 1.2248,-3.632 4.5008,-1.28532 4.5008,-1.2853 2.7854,2.63038 2.7855,2.63041 v 4.80656 4.80658 l -2.8099,2.65336 -2.8097,2.65338 v 50.64779 50.64777 l -4.4488,3.31682 -4.4489,3.31682 v 5.85802 5.85803 l -4.188,3.85875 -4.1883,3.85877 h -3.6239 -3.6239 z M 225.58685,523.46597 v -11.57101 l -4.65387,-3.46966 -4.65386,-3.46967 -0.49743,-60.18498 -0.49744,-60.18499 -6.16745,-0.67463 -6.16744,-0.67466 0.54784,-15.31093 0.54785,-15.31096 h 14.049 14.04901 l 0.55036,15.45274 0.55037,15.45274 h -6.63826 -6.63828 v 59.61283 59.61283 l 14.55348,-1.277 14.55348,-1.27697 2.39895,3.289 2.39898,3.28903 -0.56196,13.50743 -0.56192,13.50741 -13.5807,0.62623 -13.58071,0.62624 z"
       id="path255"
       inkscape:highlight-color="#3b80ee" /></g></svg>
